<?xml version="1.0" standalone="no"?>
<!DOCTYPE svg PUBLIC "-//W3C//DTD SVG 20010904//EN"
 "http://www.w3.org/TR/2001/REC-SVG-20010904/DTD/svg10.dtd">
<svg version="1.0" xmlns="http://www.w3.org/2000/svg"
 width="389.000000pt" height="332.000000pt" viewBox="0 0 389.000000 332.000000"
 preserveAspectRatio="xMidYMid meet">

<g transform="translate(0.000000,332.000000) scale(0.100000,-0.100000)"
fill="#000000" stroke="none">
<path d="M726 3174 c-3 -9 -6 -25 -6 -38 0 -19 9 -23 81 -38 103 -22 198 -66
245 -115 37 -39 41 -51 320 -1038 l283 -998 -69 -64 c-162 -150 -202 -365
-104 -561 150 -304 569 -360 793 -106 79 89 110 171 119 308 l7 99 725 194
c398 106 725 195 727 196 1 2 -2 20 -8 41 -8 28 -14 36 -27 32 -90 -27 -1445
-386 -1447 -384 -1 2 -10 19 -20 38 -10 19 -29 50 -42 68 -14 18 -23 36 -20
38 3 3 229 65 502 139 273 73 498 135 500 137 5 5 -360 1367 -369 1375 -3 4
-314 -76 -691 -177 -508 -136 -685 -187 -685 -198 0 -8 63 -249 139 -536 77
-286 143 -533 146 -548 6 -24 3 -27 -46 -42 -29 -8 -54 -14 -55 -13 -1 1 -126
443 -279 982 -152 539 -284 994 -292 1012 -36 78 -159 156 -301 192 -97 25
-118 26 -126 5z m2274 -1403 c83 -310 147 -567 143 -571 -4 -4 -207 -60 -451
-125 l-443 -118 -77 40 c-69 37 -138 58 -212 65 -24 3 -29 18 -157 497 -73
272 -132 495 -130 496 12 10 493 132 498 127 3 -4 25 -80 49 -168 l43 -161 81
22 c44 13 80 27 79 31 0 5 -20 80 -43 167 -23 88 -40 160 -38 162 2 1 113 32
248 67 217 58 246 64 252 49 4 -9 75 -270 158 -580z m-968 -862 c114 -38 188
-106 242 -219 28 -58 31 -74 30 -155 0 -69 -6 -104 -23 -148 -32 -81 -114
-168 -199 -209 -63 -31 -73 -33 -177 -33 -101 0 -115 2 -170 29 -159 78 -251
249 -224 418 38 245 287 396 521 317z"/>
<path d="M1815 798 c-120 -45 -185 -138 -185 -266 0 -192 179 -318 371 -261
67 20 153 109 173 178 20 69 20 106 -1 170 -20 62 -69 122 -130 158 -37 21
-61 27 -122 30 -42 1 -89 -3 -106 -9z"/>
<path d="M410 1735 c-195 -57 -365 -107 -378 -110 -20 -5 -23 -10 -17 -38 4
-18 10 -35 14 -39 4 -5 182 43 397 105 l390 112 -9 38 c-6 25 -14 37 -25 36
-10 0 -177 -47 -372 -104z"/>
<path d="M655 1468 c-209 -60 -382 -111 -383 -113 -5 -5 18 -75 24 -75 6 0
778 222 781 224 7 6 -22 76 -31 75 -6 0 -182 -50 -391 -111z"/>
<path d="M962 1221 c-205 -60 -376 -111 -379 -115 -11 -11 13 -71 28 -70 14 1
761 215 767 219 2 2 0 19 -3 39 -5 24 -13 36 -24 35 -9 0 -184 -49 -389 -108z"/>
</g>
</svg>
