<?xml version="1.0" standalone="no"?>
<!DOCTYPE svg PUBLIC "-//W3C//DTD SVG 20010904//EN"
 "http://www.w3.org/TR/2001/REC-SVG-20010904/DTD/svg10.dtd">
<svg version="1.0" xmlns="http://www.w3.org/2000/svg"
 width="1106.000000pt" height="363.000000pt" viewBox="0 0 1106.000000 363.000000"
 preserveAspectRatio="xMidYMid meet">

<g transform="translate(0.000000,363.000000) scale(0.100000,-0.100000)"
fill="#000000" stroke="none">
<path d="M9126 3610 c-205 -24 -391 -80 -581 -175 -347 -174 -623 -455 -795
-810 -290 -597 -242 -1296 129 -1846 218 -324 528 -562 891 -683 205 -68 288
-80 540 -80 251 0 338 13 535 78 520 174 939 600 1115 1134 62 191 82 309 88
530 5 221 -5 329 -50 506 -162 643 -647 1142 -1268 1301 -175 45 -434 64 -604
45z m411 -479 c257 -50 462 -160 653 -351 195 -194 322 -432 377 -708 27 -134
24 -405 -6 -542 -115 -533 -504 -927 -1021 -1037 -122 -25 -352 -23 -480 4
-376 82 -696 328 -874 671 -60 116 -91 199 -124 332 -24 96 -26 123 -27 305 0
154 4 219 18 282 61 282 187 513 387 707 185 180 408 297 646 340 119 21 333
20 451 -3z"/>
<path d="M14 1998 c3 -871 9 -1665 12 -1765 l6 -183 919 0 919 0 0 280 0 280
-665 0 -665 0 0 1485 0 1485 -266 0 -266 0 6 -1582z"/>
<path d="M2706 2838 c-3 -409 -9 -1203 -12 -1765 l-6 -1023 936 0 936 0 0 250
0 250 -655 0 -655 0 0 525 0 525 495 0 495 0 0 225 0 225 -485 0 -485 0 0 495
0 495 635 0 635 0 0 270 0 270 -914 0 -914 0 -6 -742z"/>
<path d="M5120 1815 l0 -1765 372 2 372 3 1022 1745 c563 960 1023 1748 1024
1753 0 4 -138 6 -306 5 l-307 -3 -816 -1322 -816 -1322 -3 1335 -2 1334 -270
0 -270 0 0 -1765z"/>
</g>
</svg>
