<?xml version="1.0" standalone="no"?>
<!DOCTYPE svg PUBLIC "-//W3C//DTD SVG 20010904//EN"
 "http://www.w3.org/TR/2001/REC-SVG-20010904/DTD/svg10.dtd">
<svg version="1.0" xmlns="http://www.w3.org/2000/svg"
 width="62.000000pt" height="37.000000pt" viewBox="0 0 62.000000 37.000000"
 preserveAspectRatio="xMidYMid meet">

<g transform="translate(0.000000,37.000000) scale(0.100000,-0.100000)"
fill="#000000" stroke="none">
<path d="M480 240 c-39 -39 -11 -110 43 -110 23 0 57 27 57 46 0 4 -7 -2 -16
-14 -28 -41 -94 -16 -94 36 0 49 66 70 94 30 9 -12 16 -18 16 -12 0 18 -35 44
-58 44 -12 0 -31 -9 -42 -20z"/>
<path d="M420 224 c-24 -66 -33 -84 -41 -84 -5 0 -9 12 -10 28 0 15 -4 36 -9
47 l-9 20 1 -20 c0 -43 23 -114 34 -107 12 8 56 133 49 140 -2 3 -9 -8 -15
-24z"/>
<path d="M271 211 c-10 -6 -11 -20 -6 -52 12 -70 16 -75 50 -68 29 6 29 7 4 8
-22 1 -39 17 -39 37 0 3 10 9 23 14 22 9 22 9 1 9 -12 1 -25 8 -28 17 -8 20
-7 20 24 33 21 8 22 10 5 10 -11 0 -26 -3 -34 -8z"/>
<path d="M169 93 c-13 -17 -13 -17 6 -3 11 8 22 16 24 17 2 2 0 3 -6 3 -6 0
-17 -8 -24 -17z"/>
<path d="M184 65 c-8 -19 3 -35 26 -35 19 0 30 17 23 38 -6 17 -42 15 -49 -3z"/>
<path d="M198 3 c7 -3 16 -2 19 1 4 3 -2 6 -13 5 -11 0 -14 -3 -6 -6z"/>
</g>
</svg>
