<?xml version="1.0" standalone="no"?>
<!DOCTYPE svg PUBLIC "-//W3C//DTD SVG 20010904//EN"
 "http://www.w3.org/TR/2001/REC-SVG-20010904/DTD/svg10.dtd">
<svg version="1.0" xmlns="http://www.w3.org/2000/svg"
 width="62.000000pt" height="38.000000pt" viewBox="0 0 62.000000 38.000000"
 preserveAspectRatio="xMidYMid meet">

<g transform="translate(0.000000,38.000000) scale(0.100000,-0.100000)"
fill="#000000" stroke="none">
<path d="M118 353 c16 -14 26 -46 41 -127 18 -96 19 -111 6 -129 -20 -29 -19
-53 5 -77 27 -27 46 -25 76 5 21 21 54 31 192 60 91 20 168 38 171 40 7 8 -1
7 -175 -30 -91 -19 -167 -35 -169 -35 -1 0 -5 9 -8 20 -3 11 -19 25 -35 31
-33 11 -33 12 -63 169 -13 70 -23 90 -46 90 -11 0 -10 -5 5 -17z m126 -275
c15 -24 -3 -52 -37 -56 -33 -4 -53 28 -37 59 14 25 58 23 74 -3z"/>
<path d="M184 75 c-15 -37 21 -60 46 -30 10 12 10 18 0 30 -7 8 -19 15 -27 15
-7 0 -16 -7 -19 -15z"/>
<path d="M480 250 c-29 -29 -26 -74 6 -99 33 -26 45 -26 75 -3 31 26 31 78 0
104 -30 23 -56 23 -81 -2z m68 -6 c24 -17 30 -62 10 -82 -7 -7 -24 -12 -40
-12 -48 0 -66 66 -26 94 12 9 25 16 28 16 3 0 16 -7 28 -16z"/>
<path d="M405 194 c-20 -59 -27 -57 -40 11 -4 22 -10 34 -12 28 -7 -20 18
-124 29 -121 17 6 66 138 51 138 -5 0 -17 -25 -28 -56z"/>
<path d="M276 223 c-16 -4 -17 -11 -12 -54 4 -27 9 -56 12 -64 7 -18 50 -20
60 -4 5 9 -1 10 -20 5 -14 -3 -26 -2 -26 3 0 5 -3 16 -6 25 -4 10 -1 16 9 16
9 0 19 5 23 11 4 8 0 9 -15 4 -12 -3 -21 -2 -21 4 0 5 -3 16 -6 25 -4 11 0 16
14 16 12 0 24 5 27 10 6 10 -6 11 -39 3z"/>
</g>
</svg>
